<?xml version="1.0" encoding="UTF-8"?>

<svg
   xmlns="http://www.w3.org/2000/svg"
   width="92.47052"
   height="170.27887">

    <path opacity="1.000" fill="none" stroke="#35609c" stroke-width="1.500" stroke-opacity="1.000" stroke-linecap="round" stroke-linejoin="round" filter="url(#FILTER_pencil)" d="M 493.762 514.842 Q 493.762 514.842 498.286 506.679 Q 502.809 498.515 507.333 490.351 Q 511.857 482.187 516.856 472.543 Q 521.855 462.899 525.582 453.269 Q 529.309 443.640 533.592 434.250 Q 537.876 424.861 539.855 416.727 Q 541.834 408.593 543.577 403.165 Q 545.320 397.737 549.600 384.415 Q 553.879 371.093 559.032 357.023 Q 564.185 342.953 567.835 335.537 Q 571.485 328.121 574.976 321.198 Q 578.467 314.275 583.548 306.350 Q 588.629 298.426 599.606 299.771 Q 610.582 301.116 618.543 307.904 Q 626.504 314.691 627.464 319.596 Q 628.424 324.500 618.978 353.909 Q 609.532 383.318 599.330 415.079 Q 589.129 446.839 581.605 470.263 Q 574.081 493.687 572.250 499.389 Q 570.418 505.090 571.532 505.569 Q 572.646 506.047 576.453 494.194 Q 580.261 482.340 589.095 454.836 Q 597.930 427.331 608.301 395.044 Q 618.672 362.757 624.662 344.107 Q 630.652 325.456 633.111 319.775 Q 635.570 314.093 639.772 302.984 Q 643.974 291.874 653.176 271.121 Q 662.377 250.367 675.324 235.714 Q 688.270 221.060 698.767 219.953 Q 709.264 218.846 714.440 224.438 Q 719.616 230.030 714.418 249.688 Q 709.221 269.346 701.590 297.519 Q 693.959 325.693 686.605 350.706 Q 679.251 375.720 671.456 400.308 Q 663.662 424.897 655.650 449.471 Q 647.638 474.045 643.621 486.456 Q 639.603 498.867 640.875 498.852 Q 642.148 498.837 646.204 486.501 Q 650.260 474.166 659.266 446.304 Q 668.272 418.443 678.285 386.281 Q 688.298 354.118 692.877 338.410 Q 697.455 322.702 703.986 297.244 Q 710.517 271.786 716.339 250.893 Q 722.161 230.000 722.319 229.506 L 722.478 229.013 L 722.795 228.026 Q 728.337 206.824 732.780 196.941 Q 737.222 187.057 749.150 185.442 Q 761.077 183.827 772.457 189.837 Q 783.837 195.847 786.880 213.998 Q 789.924 232.149 788.823 243.468 Q 787.723 254.787 786.460 262.666 Q 785.196 270.546 781.085 291.240 Q 776.973 311.933 771.671 334.361 Q 766.368 356.789 759.074 387.927 Q 751.779 419.065 744.806 450.007 Q 737.833 480.950 734.930 494.033 L 732.027 507.116 L 733.141 507.595 Q 739.533 478.798 746.616 447.411 Q 753.698 416.024 760.590 386.645 Q 767.482 357.267 772.785 334.839 Q 778.087 312.411 782.199 291.718 Q 786.310 271.024 786.627 270.038 Q 786.944 269.051 788.846 263.130 Q 790.748 257.209 794.081 250.779 Q 797.414 244.350 805.442 241.060 Q 813.471 237.770 823.733 239.370 Q 833.994 240.969 840.447 250.478 Q 846.900 259.987 848.825 273.728 Q 850.749 287.468 849.731 300.506 Q 848.712 313.544 847.136 326.343 Q 845.560 339.142 844.773 345.541 Q 843.985 351.941 843.043 362.766 Q 842.101 373.591 840.689 389.829 Q 839.276 406.066 837.700 418.865 Q 836.124 431.664 833.435 443.984 Q 830.745 456.305 828.766 464.439 Q 826.788 472.573 825.443 478.733 Q 824.098 484.893 823.228 489.573 Q 822.359 494.253 821.730 500.159 Q 821.100 506.065 819.678 514.438 Q 818.257 522.811 817.310 529.704 Q 816.364 536.597 815.893 542.009 Q 815.422 547.422 815.110 552.341 Q 814.797 557.260 814.168 563.166 Q 813.539 569.072 813.149 576.204 Q 812.760 583.336 812.611 591.694 Q 812.461 600.052 812.230 606.691 Q 811.999 613.330 811.687 618.249 Q 811.375 623.168 810.745 629.074 Q 810.116 634.980 810.125 642.844 Q 810.134 650.709 810.220 656.361 Q 810.307 662.013 811.103 663.478 Q 811.900 664.943 813.173 664.928 Q 814.445 664.913 818.023 663.642 Q 821.600 662.371 825.495 660.113 Q 829.389 657.855 834.076 653.131 Q 838.763 648.405 844.640 641.946 Q 850.518 635.486 857.668 629.012 Q 864.818 622.537 869.347 618.306 Q 873.875 614.074 876.814 610.844 Q 879.753 607.614 887.619 600.886 Q 895.484 594.157 902.159 589.163 Q 908.834 584.169 914.318 580.909 Q 919.802 577.649 931.091 574.075 Q 942.380 570.501 962.903 573.700 Q 983.425 576.899 987.410 584.225 Q 991.396 591.551 989.729 594.766 Q 988.063 597.980 976.466 610.406 Q 964.869 622.831 952.955 636.244 Q 941.041 649.656 925.040 669.559 Q 909.039 689.462 898.518 704.772 Q 887.996 720.082 883.472 728.246 Q 878.949 736.410 874.425 744.573 Q 869.901 752.737 864.499 757.716 Q 859.096 762.696 851.865 767.451 Q 844.633 772.206 838.117 776.707 Q 831.600 781.208 828.104 784.198 Q 824.609 787.188 821.271 789.686 Q 817.934 792.183 812.133 796.429 Q 806.332 800.676 797.751 807.659 Q 789.170 814.641 780.032 821.385 Q 770.893 828.129 765.251 831.882 Q 759.609 835.635 753.966 839.388 Q 748.324 843.142 740.934 848.390 Q 733.544 853.639 728.300 858.125 Q 723.056 862.610 719.483 867.814 Q 715.910 873.017 713.370 876.979 Q 710.829 880.942 708.928 886.863 Q 707.026 892.784 705.047 900.918 Q 703.068 909.052 699.216 935.092 Q 695.365 961.132 693.375 973.010 Q 691.386 984.888 671.103 982.915 Q 650.821 980.942 622.809 969.722 Q 594.797 958.502 586.287 955.161 Q 577.778 951.820 564.808 946.812 Q 551.839 941.804 523.964 930.618 Q 496.090 919.433 486.329 915.578 Q 476.568 911.724 465.346 905.220 Q 454.125 898.717 453.957 891.346 Q 453.790 883.975 458.281 857.961 Q 462.773 831.948 463.806 821.030 Q 464.838 810.112 465.104 783.254 Q 465.370 756.395 463.532 730.923 Q 461.694 705.450 461.363 694.640 Q 461.033 683.829 461.417 672.765 Q 461.802 661.701 462.269 652.356 Q 462.735 643.011 463.998 635.131 Q 465.261 627.252 466.683 618.879 Q 468.105 610.505 469.052 603.613 Q 469.998 596.720 470.627 590.814 Q 471.257 584.908 473.154 575.055 Q 475.051 565.201 477.347 556.080 Q 479.643 546.960 482.419 540.291 Q 485.194 533.622 489.478 524.232 Q 493.762 514.842 493.762 514.842 Z"></path>
  </svg>